<mxfile host="65bd71144e">
    <diagram id="inNcArHntUs9PveNn5Oe" name="Page-1">
        <mxGraphModel dx="2024" dy="1516" grid="1" gridSize="10" guides="1" tooltips="1" connect="1" arrows="1" fold="1" page="1" pageScale="1" pageWidth="2336" pageHeight="1654" background="#CCCCCC" math="0" shadow="0">
            <root>
                <mxCell id="0"/>
                <mxCell id="1" parent="0"/>
                <mxCell id="26" value="order" style="swimlane;childLayout=stackLayout;resizeParent=1;resizeParentMax=0;horizontal=0;startSize=20;horizontalStack=0;fillColor=#60a917;strokeColor=#2D7600;fontColor=#ffffff;fontSize=9;" parent="1" vertex="1">
                    <mxGeometry x="110" y="91" width="1490" height="700" as="geometry"/>
                </mxCell>
                <mxCell id="44" value="Postex" style="swimlane;startSize=20;horizontal=0;fillColor=#60a917;strokeColor=#2D7600;fontColor=#ffffff;" parent="26" vertex="1">
                    <mxGeometry x="20" width="1470" height="700" as="geometry"/>
                </mxCell>
                <mxCell id="46" value="&lt;font style=&quot;font-size: 18px&quot;&gt;شروع&lt;/font&gt;" style="ellipse;whiteSpace=wrap;html=1;aspect=fixed;fontSize=13;fillColor=#0050ef;strokeColor=#001DBC;fontColor=#ffffff;" parent="44" vertex="1">
                    <mxGeometry x="100" y="290" width="80" height="80" as="geometry"/>
                </mxCell>
                <mxCell id="155" style="edgeStyle=elbowEdgeStyle;elbow=vertical;html=1;exitX=0.5;exitY=1;exitDx=0;exitDy=0;entryX=0;entryY=0.5;entryDx=0;entryDy=0;entryPerimeter=0;" parent="44" source="71" target="127" edge="1">
                    <mxGeometry relative="1" as="geometry">
                        <mxPoint x="663" y="484" as="targetPoint"/>
                        <Array as="points">
                            <mxPoint x="543" y="479"/>
                        </Array>
                    </mxGeometry>
                </mxCell>
                <mxCell id="71" value="&lt;font style=&quot;font-size: 19px&quot;&gt;نوع سفارش&lt;/font&gt;" style="rhombus;whiteSpace=wrap;html=1;fontSize=13;fontColor=#ffffff;strokeColor=#6F0000;fillColor=#a20025;" parent="44" vertex="1">
                    <mxGeometry x="443" y="230" width="147" height="120" as="geometry"/>
                </mxCell>
                <mxCell id="137" value="&lt;span style=&quot;font-size: 18px&quot;&gt;پیش کرایه&lt;/span&gt;" style="edgeStyle=orthogonalEdgeStyle;html=1;entryX=0;entryY=0.5;entryDx=0;entryDy=0;fontSize=12;align=left;fontColor=#1A1A1A;" parent="44" target="136" edge="1">
                    <mxGeometry x="-0.2857" y="-22" relative="1" as="geometry">
                        <mxPoint x="593" y="289" as="sourcePoint"/>
                        <Array as="points">
                            <mxPoint x="613" y="289"/>
                            <mxPoint x="613" y="319"/>
                            <mxPoint x="693" y="319"/>
                        </Array>
                        <mxPoint x="-10" y="-2" as="offset"/>
                    </mxGeometry>
                </mxCell>
                <mxCell id="127" value="فرآیند مالی پس کرایه" style="verticalLabelPosition=middle;verticalAlign=middle;html=1;strokeWidth=2;shape=mxgraph.arrows2.arrow;dy=0.6;dx=40;notch=0;fontSize=12;horizontal=1;labelPosition=center;align=center;" parent="44" vertex="1">
                    <mxGeometry x="613" y="437.5" width="120" height="92.5" as="geometry"/>
                </mxCell>
                <mxCell id="147" style="edgeStyle=orthogonalEdgeStyle;html=1;exitX=1;exitY=0.5;exitDx=0;exitDy=0;curved=1;" parent="44" source="136" target="139" edge="1">
                    <mxGeometry relative="1" as="geometry"/>
                </mxCell>
                <mxCell id="136" value="رهسپاری شده" style="rhombus;whiteSpace=wrap;html=1;fontSize=13;fontColor=#ffffff;strokeColor=#6F0000;fillColor=#a20025;" parent="44" vertex="1">
                    <mxGeometry x="693" y="289" width="80" height="80" as="geometry"/>
                </mxCell>
                <mxCell id="156" style="edgeStyle=orthogonalEdgeStyle;html=1;exitX=0.5;exitY=1;exitDx=0;exitDy=0;entryX=0;entryY=0.5;entryDx=0;entryDy=0;" parent="44" source="139" target="152" edge="1">
                    <mxGeometry relative="1" as="geometry">
                        <Array as="points">
                            <mxPoint x="993" y="349"/>
                            <mxPoint x="993" y="615"/>
                        </Array>
                    </mxGeometry>
                </mxCell>
                <mxCell id="157" value="&lt;div&gt;مشتری&lt;/div&gt;" style="edgeStyle=orthogonalEdgeStyle;html=1;exitX=0.5;exitY=0;exitDx=0;exitDy=0;entryX=0;entryY=0.5;entryDx=0;entryDy=0;" parent="44" source="139" target="148" edge="1">
                    <mxGeometry relative="1" as="geometry"/>
                </mxCell>
                <mxCell id="139" value="نوع مشتری" style="rhombus;whiteSpace=wrap;html=1;fontSize=13;fontColor=#ffffff;strokeColor=#6F0000;fillColor=#a20025;" parent="44" vertex="1">
                    <mxGeometry x="813" y="269" width="80" height="80" as="geometry"/>
                </mxCell>
                <mxCell id="146" value="خیر" style="edgeStyle=orthogonalEdgeStyle;html=1;exitX=1;exitY=0.5;exitDx=0;exitDy=0;entryX=0;entryY=0.5;entryDx=0;entryDy=0;fontSize=12;fontColor=#E5F0C2;" parent="44" source="143" target="71" edge="1">
                    <mxGeometry relative="1" as="geometry"/>
                </mxCell>
                <mxCell id="143" value="بازاریاب دارد" style="rhombus;whiteSpace=wrap;html=1;fontSize=13;fontColor=#ffffff;strokeColor=#6F0000;fillColor=#a20025;" parent="44" vertex="1">
                    <mxGeometry x="283" y="225" width="80" height="80" as="geometry"/>
                </mxCell>
                <mxCell id="132" style="edgeStyle=orthogonalEdgeStyle;html=1;exitX=1;exitY=0.5;exitDx=0;exitDy=0;entryX=0;entryY=0.5;entryDx=0;entryDy=0;fontSize=18;fontColor=#E5F0C2;" parent="44" source="46" target="143" edge="1">
                    <mxGeometry relative="1" as="geometry"/>
                </mxCell>
                <mxCell id="152" value="&lt;div&gt;شارژ کیف پول نماینده:&lt;/div&gt;&lt;div&gt;&lt;br&gt;&lt;/div&gt;&lt;ul style=&quot;font-size: 12px&quot;&gt;&lt;li style=&quot;font-size: 12px&quot;&gt;خدمات نمایندگی&lt;br&gt;&lt;/li&gt;&lt;li style=&quot;font-size: 12px&quot;&gt;حق نمایندگی&lt;/li&gt;&lt;/ul&gt;" style="whiteSpace=wrap;html=1;fontSize=13;fontColor=#ffffff;strokeColor=#2D7600;fillColor=#60a917;" parent="44" vertex="1">
                    <mxGeometry x="1143" y="550" width="180" height="130" as="geometry"/>
                </mxCell>
                <mxCell id="154" value="نماینده" style="text;html=1;strokeColor=none;fillColor=none;align=center;verticalAlign=middle;whiteSpace=wrap;rounded=0;" parent="44" vertex="1">
                    <mxGeometry x="923" y="329" width="40" height="20" as="geometry"/>
                </mxCell>
                <mxCell id="148" value="شارژ کیف پول نماینده:&lt;br style=&quot;font-size: 12px;&quot;&gt;&lt;ul style=&quot;font-size: 12px;&quot;&gt;&lt;li style=&quot;font-size: 12px;&quot;&gt;جمع آوری&lt;/li&gt;&lt;li style=&quot;font-size: 12px;&quot;&gt;ثبت سفارش&lt;/li&gt;&lt;li style=&quot;font-size: 12px;&quot;&gt;پرینت&lt;/li&gt;&lt;li style=&quot;font-size: 12px;&quot;&gt;کارتن و لفاف&lt;/li&gt;&lt;li style=&quot;font-size: 12px;&quot;&gt;حق نمایندگی&lt;/li&gt;&lt;/ul&gt;" style="whiteSpace=wrap;html=1;fontSize=12;fontColor=#ffffff;strokeColor=#2D7600;fillColor=#60a917;spacing=0;" parent="44" vertex="1">
                    <mxGeometry x="1073" y="209" width="190" height="149" as="geometry"/>
                </mxCell>
                <mxCell id="162" value="تا زمانی که سفارش رهسپاری نشده باشد &lt;br&gt;&lt;div&gt;برای نماینده واریزی صورت نمیگیرید&lt;/div&gt;" style="whiteSpace=wrap;html=1;fontSize=13;fontColor=#ffffff;strokeColor=#2D7600;fillColor=#60a917;" vertex="1" parent="44">
                    <mxGeometry x="793" y="509" width="180" height="130" as="geometry"/>
                </mxCell>
                <mxCell id="159" style="edgeStyle=orthogonalEdgeStyle;html=1;exitX=0.5;exitY=1;exitDx=0;exitDy=0;fontColor=#1A1A1A;" edge="1" parent="44" source="136" target="162">
                    <mxGeometry relative="1" as="geometry">
                        <mxPoint x="893" y="499" as="targetPoint"/>
                    </mxGeometry>
                </mxCell>
                <mxCell id="145" value="بلی" style="edgeStyle=orthogonalEdgeStyle;html=1;exitX=0.5;exitY=0;exitDx=0;exitDy=0;fontSize=12;fontColor=#E5F0C2;entryX=0;entryY=0.5;entryDx=0;entryDy=0;" parent="44" source="143" target="131" edge="1">
                    <mxGeometry relative="1" as="geometry">
                        <mxPoint x="420.00000000000045" y="669" as="targetPoint"/>
                    </mxGeometry>
                </mxCell>
                <mxCell id="133" style="edgeStyle=orthogonalEdgeStyle;html=1;exitX=1;exitY=0.5;exitDx=0;exitDy=0;fontSize=18;fontColor=#E5F0C2;" parent="44" source="131" target="71" edge="1">
                    <mxGeometry relative="1" as="geometry"/>
                </mxCell>
                <mxCell id="131" value="واریز هزینه بازاریابی به کیف پول بازاریاب&lt;br&gt;(در شش ماه اول از شروع اولین سفارش مشتری A درصد و در 6ماه دوم&amp;nbsp; B واریز میشود" style="whiteSpace=wrap;html=1;fontSize=13;fontColor=#ffffff;strokeColor=#2D7600;fillColor=#60a917;" parent="44" vertex="1">
                    <mxGeometry x="300" y="29" width="200" height="150" as="geometry"/>
                </mxCell>
            </root>
        </mxGraphModel>
    </diagram>
</mxfile>